<svg xmlns="http://www.w3.org/2000/svg" viewBox="0 0 24 24" fill="none" stroke="#fafbfc" stroke-width="1.5" stroke-linecap="round" stroke-linejoin="round">
  <!-- Representación abstracta del Bot de Copilot -->
  <path d="M12 2a5 5 0 0 0-5 5v3H6a2 2 0 0 0-2 2v2a2 2 0 0 0 2 2h1v3a2 2 0 0 0 2 2h6a2 2 0 0 0 2-2v-3h1a2 2 0 0 0 2-2v-2a2 2 0 0 0-2-2h-1V7a5 5 0 0 0-5-5z"/>
  <circle cx="9" cy="12" r="1.5" fill="#fafbfc" stroke="none" />
  <circle cx="15" cy="12" r="1.5" fill="#fafbfc" stroke="none" />
  <path d="M9 16.5h6" />
</svg>